<svg width="256" height="256" viewBox="0 0 256 256" fill="none" xmlns="http://www.w3.org/2000/svg">
<rect width="256" height="256" rx="48" fill="#754CFF"/>
<path fill-rule="evenodd" clip-rule="evenodd" d="M129.907 153.839C129.907 153.839 140.293 118.819 116.157 101.218C116.157 101.218 112.177 89.9178 124.626 92.0366C130.082 95.6911 134.571 100.615 137.708 106.387C140.844 112.159 142.536 118.606 142.636 125.175C143.511 148.426 143.935 162.212 143.935 162.212L146.927 114.411L143.511 102.772C143.511 102.772 132.22 88.6465 125.925 84.2676C125.925 84.2676 119.488 70.4811 134.393 73.504C134.393 73.504 161.832 90.7371 164.853 125.175C164.853 125.175 168.692 92.8842 142.1 71.7806C142.1 71.7806 137.386 60.4802 151.105 61.469C151.105 61.469 178.995 78.2501 181.141 123.452L170.837 148.002L135.664 175.547L125.812 160.913L129.907 153.839Z" fill="#B3DBF3" fill-opacity="0.5"/>
<path fill-rule="evenodd" clip-rule="evenodd" d="M172.525 86.0944C172.525 86.0944 154.262 77.1333 147.747 112.327C144.963 126.885 141.344 138.901 128.506 152.439C117.536 177.997 121.387 184.066 121.387 212.543C139.127 217.211 138.076 216.861 152.665 212.543C152.665 204.373 151.498 190.018 156.866 177.997C161.751 164.343 176.45 158.974 185.164 144.412C191.957 131.069 201.228 104.836 189.647 77.8118C187.475 72.8366 181.462 58.024 174.529 65.2041C173.054 66.7589 171.745 70.4903 176.45 79.0556C176.45 79.0556 192.069 110.66 172.608 132.228C172.608 132.228 164.618 141.246 161.751 135.507C161.751 135.507 155.654 122.815 170.103 91.1827L172.246 87.2534L172.748 86.2923L172.525 86.0944Z" fill="#7276FB"/>
<path fill-rule="evenodd" clip-rule="evenodd" d="M129.907 153.839C129.907 153.839 140.293 118.819 116.157 101.218C116.157 101.218 112.177 89.9178 124.626 92.0366C130.082 95.6911 134.571 100.615 137.708 106.387C140.844 112.159 142.536 118.606 142.636 125.175C143.511 148.426 143.935 162.212 143.935 162.212L146.927 114.411L143.511 102.772C143.511 102.772 132.22 88.6465 125.925 84.2676C125.925 84.2676 119.488 70.4811 134.393 73.504C134.393 73.504 161.832 90.7371 164.853 125.175C164.853 125.175 168.692 92.8842 142.1 71.7806C142.1 71.7806 137.386 60.4802 151.105 61.469C151.105 61.469 178.995 78.2501 181.141 123.452L170.837 148.002L135.664 175.547L125.812 160.913L129.907 153.839Z" fill="#FFF7EA" fill-opacity="0.3"/>
<path fill-rule="evenodd" clip-rule="evenodd" d="M172.526 86.0944C172.526 86.0944 154.262 77.1333 147.748 112.327C144.964 126.885 137.027 138.551 128.507 152.439C119.754 167.844 115.553 183.249 119.871 212.542C136.326 217.094 140.761 217.211 152.665 212.542C152.665 204.373 151.498 190.018 156.867 177.997C161.751 164.343 176.451 158.974 185.165 144.412C191.958 131.069 201.229 104.836 189.647 77.8118C187.476 72.8366 181.462 58.024 174.53 65.2041C173.055 66.7589 171.746 70.4903 176.451 79.0556C176.451 79.0556 192.069 110.659 172.609 132.228C172.609 132.228 164.619 141.246 161.751 135.507C161.751 135.507 155.654 122.815 170.103 91.1827L172.247 87.2534L172.748 86.2923L172.526 86.0944Z" fill="#DFDBF1"/>
<path fill-rule="evenodd" clip-rule="evenodd" d="M113.918 181.149C109.203 160.055 103.648 154.306 81.0962 152.091C81.0962 152.091 75.7881 151.752 78.9221 144.061C80.2774 140.781 82.5361 138.18 78.9221 136.002C77.6798 135.267 76.974 135.211 78.1033 134.136C79.6845 132.638 80.475 132.355 79.1197 130.913C74.9411 126.474 79.1198 125.258 80.5879 121.328C81.0679 120.112 81.6891 116.464 74.9411 112.591C74.9411 112.591 71.7223 110.526 76.014 106.116L86.7148 93.8441C92.3617 87.3973 91.9382 78.2644 96.3427 70.9411C102.921 60.0551 120.511 40.9694 157.668 57.9062C158.283 58.1275 158.879 58.4018 159.447 58.7262C167.917 64.3813 175.004 54.9373 166.703 49.254C144.906 34.1268 111.307 35.7667 92.7287 53.976C86.4084 60.876 82.1355 69.4049 80.3903 78.6037C77.8492 90.1966 72.8517 95.993 61.7274 105.437C61.7274 105.437 56.5605 110.696 64.0991 115.588C69.7459 119.264 68.306 120.875 65.539 125.908C64.4943 127.746 66.3013 128.905 67.5437 130.545C67.7596 130.8 67.9195 131.097 68.0129 131.418C68.1064 131.738 68.1313 132.075 68.086 132.406C68.0407 132.737 67.9262 133.054 67.7501 133.338C67.5739 133.621 67.34 133.865 67.0637 134.051C64.6637 136.313 64.9179 136.427 67.3743 138.293C68.1343 138.731 68.7712 139.355 69.2254 140.107C69.6796 140.858 69.9364 141.713 69.9718 142.591C69.5886 145.247 68.6245 147.786 67.1484 150.027C67.1484 150.027 62.3768 158.849 76.9175 159.527C94.5271 160.347 103.406 163.274 106.911 184.735C106.914 184.754 106.926 184.774 106.945 184.777C106.956 184.779 106.963 184.777 106.974 184.777C106.997 184.777 107.033 184.777 107.033 184.777H107.149C107.149 184.777 107.292 184.777 107.383 184.777C107.565 184.777 107.667 184.778 107.85 184.777C108.123 184.776 108.501 184.767 108.55 184.766C108.599 184.766 109.049 184.795 109.367 184.766C109.643 184.742 109.794 184.7 110.067 184.65C110.296 184.607 110.651 184.533 110.651 184.533L111.351 184.416C111.351 184.416 111.706 184.342 111.934 184.3C112.207 184.249 112.361 184.228 112.635 184.183C112.908 184.137 113.335 184.066 113.335 184.066C113.335 184.066 113.697 184.035 113.918 183.949C114.14 183.864 113.918 182.549 113.918 182.549V181.149Z" fill="#D7D2EF"/>
</svg>
