<svg width="56" height="136" viewBox="0 0 56 136" fill="none" xmlns="http://www.w3.org/2000/svg">
<path d="M46.9677 42.3111C41.7742 38.1556 39.0645 32.8667 39.0645 27.3889V12.0889C40.4194 11.5222 41.5484 10.2 41.5484 8.87778V3.58889C41.5484 1.7 39.7419 0 37.2581 0H18.9677C16.7097 0 14.6774 1.51111 14.6774 3.58889V8.87778C14.6774 10.3889 16.0323 11.9 17.6129 12.2778V26.8222C17.6129 32.6778 14.6774 38.1556 9.48387 41.9333C3.6129 46.2778 0 52.7 0 59.5V130.144C0 133.356 3.16129 136 7 136H49C52.8387 136 56 133.356 56 130.144V59.5C56 53.0778 52.8387 46.8444 46.9677 42.3111ZM37.0323 3.77778V8.5H36.8065H20.0968H19.4194V3.77778H37.0323ZM51.4839 129.956C51.4839 131.089 50.3548 132.033 49 132.033H7.22581C5.87097 132.033 4.74194 131.089 4.74194 129.956V59.5C4.74194 53.8333 7.67742 48.5444 12.6452 44.7667C18.7419 40.2333 22.3548 33.6222 22.3548 26.8222V12.4667H34.5484V27.5778C34.5484 34.1889 37.9355 40.4222 44.0323 45.1444C48.7742 48.9222 51.4839 54.0222 51.4839 59.5V129.956Z" fill="white"/>
</svg>
