<svg width="256" height="336" viewBox="0 0 256 336" fill="none" xmlns="http://www.w3.org/2000/svg">
<path fill-rule="evenodd" clip-rule="evenodd" d="M132.42 217.533C132.42 217.533 152.094 151.196 106.375 117.856C106.375 117.856 98.8354 96.4504 122.417 100.464C132.752 107.386 141.255 116.714 147.197 127.647C153.138 138.58 156.342 150.792 156.533 163.236C158.19 207.279 158.992 233.394 158.992 233.394L164.66 142.847L158.19 120.799C158.19 120.799 136.801 94.0422 124.877 85.7475C124.877 85.7475 112.685 59.6325 140.919 65.3585C140.919 65.3585 192.894 98.0023 198.616 163.236C198.616 163.236 205.888 102.069 155.517 62.0942C155.517 62.0942 146.587 40.6884 172.574 42.5614C172.574 42.5614 225.406 74.3489 229.47 159.972L209.952 206.476L143.325 258.652L124.663 230.932L132.42 217.533Z" fill="#B3DBF3" fill-opacity="0.5"/>
<path fill-rule="evenodd" clip-rule="evenodd" d="M213.149 89.2081C213.149 89.2081 178.554 72.2337 166.214 138.9C160.94 166.476 154.085 189.236 129.767 214.88C108.987 263.295 116.282 274.79 116.282 328.732C149.885 337.574 147.895 336.911 175.529 328.732C175.529 313.257 173.318 286.065 183.487 263.295C192.74 237.429 220.585 227.26 237.091 199.675C249.959 174.401 267.52 124.71 245.582 73.5188C241.468 64.0945 230.077 36.0359 216.946 49.6368C214.151 52.5819 211.672 59.6501 220.585 75.8749C220.585 75.8749 250.17 135.74 213.307 176.597C213.307 176.597 198.172 193.678 192.74 182.808C192.74 182.808 181.191 158.766 208.561 98.8465L212.622 91.4035L213.571 89.5829L213.149 89.2081Z" fill="#7276FB"/>
<path fill-rule="evenodd" clip-rule="evenodd" d="M132.42 217.533C132.42 217.533 152.094 151.196 106.375 117.856C106.375 117.856 98.8354 96.4504 122.417 100.464C132.752 107.386 141.255 116.714 147.197 127.647C153.138 138.58 156.342 150.792 156.533 163.236C158.19 207.279 158.992 233.394 158.992 233.394L164.66 142.847L158.19 120.799C158.19 120.799 136.801 94.0422 124.877 85.7475C124.877 85.7475 112.685 59.6325 140.919 65.3585C140.919 65.3585 192.894 98.0023 198.616 163.236C198.616 163.236 205.888 102.069 155.517 62.0942C155.517 62.0942 146.587 40.6884 172.574 42.5614C172.574 42.5614 225.406 74.3489 229.47 159.972L209.952 206.476L143.325 258.652L124.663 230.932L132.42 217.533Z" fill="#FFF7EA" fill-opacity="0.3"/>
<path fill-rule="evenodd" clip-rule="evenodd" d="M213.15 89.2081C213.15 89.2081 178.556 72.2336 166.215 138.9C160.942 166.476 145.907 188.573 129.769 214.88C113.189 244.062 105.23 273.243 113.41 328.731C144.581 337.353 152.981 337.574 175.53 328.731C175.53 313.257 173.32 286.065 183.489 263.295C192.742 237.429 220.586 227.26 237.093 199.675C249.96 174.401 267.521 124.71 245.583 73.5188C241.47 64.0945 230.079 36.0359 216.948 49.6368C214.152 52.5819 211.674 59.6501 220.586 75.8749C220.586 75.8749 250.171 135.74 213.309 176.597C213.309 176.597 198.173 193.678 192.742 182.808C192.742 182.808 181.192 158.766 208.562 98.8465L212.623 91.4035L213.572 89.5829L213.15 89.2081Z" fill="#DFDBF1"/>
<path fill-rule="evenodd" clip-rule="evenodd" d="M102.135 269.264C93.2029 229.308 82.6804 218.418 39.9613 214.222C39.9613 214.222 29.9065 213.579 35.8431 199.011C38.4102 192.798 42.6889 187.87 35.8431 183.746C33.4898 182.354 32.1528 182.247 34.2921 180.211C37.2871 177.373 38.7846 176.837 36.2175 174.105C28.302 165.696 36.2175 163.393 38.9986 155.948C39.9078 153.645 41.0844 146.736 28.302 139.398C28.302 139.398 22.205 135.488 30.3343 127.133L50.6043 103.888C61.3009 91.6763 60.4987 74.3763 68.842 60.5042C81.3035 39.8836 114.623 3.73046 185.007 35.813C186.173 36.2321 187.3 36.7518 188.376 37.3662C204.421 48.0783 217.845 30.1892 202.121 19.4236C160.832 -9.23111 97.1878 -6.12462 61.9962 28.3681C50.024 41.4385 41.93 57.5943 38.6242 75.0191C33.8107 96.9787 24.3443 107.959 3.27206 125.848C3.27206 125.848 -6.51531 135.81 7.7646 145.076C18.4612 152.039 15.7335 155.091 10.4922 164.625C8.51337 168.107 11.9363 170.303 14.2895 173.409C14.6985 173.891 15.0014 174.454 15.1784 175.061C15.3554 175.669 15.4026 176.307 15.3168 176.933C15.231 177.56 15.0142 178.162 14.6805 178.699C14.3468 179.236 13.9038 179.697 13.3803 180.051C8.83427 184.335 9.31562 184.55 13.9686 188.085C15.4084 188.915 16.6147 190.097 17.4751 191.521C18.3355 192.945 18.8219 194.563 18.889 196.226C18.1631 201.258 16.3369 206.068 13.5408 210.312C13.5408 210.312 4.50215 227.023 32.0458 228.308C65.4027 229.861 82.222 235.406 88.8606 276.057C88.8666 276.094 88.889 276.131 88.9256 276.138V276.138C88.9469 276.141 88.9593 276.138 88.9809 276.138C89.024 276.138 89.0914 276.138 89.0914 276.138H89.3125C89.3125 276.138 89.582 276.138 89.7546 276.138C90.1 276.138 90.2936 276.14 90.6389 276.138C91.157 276.134 91.8732 276.118 91.9653 276.117C92.0575 276.116 92.9108 276.17 93.5128 276.117C94.0359 276.071 94.3228 275.991 94.8392 275.896C95.2721 275.816 95.9446 275.675 95.9446 275.675L97.271 275.454C97.271 275.454 97.9435 275.313 98.3764 275.233C98.8928 275.137 99.1848 275.098 99.7028 275.012C100.221 274.925 101.029 274.791 101.029 274.791C101.029 274.791 101.715 274.731 102.135 274.57C102.554 274.408 102.135 271.917 102.135 271.917V269.264Z" fill="#D7D2EF"/>
</svg>
